<?xml version="1.0" encoding="utf-8"?>
<!-- Generator: Adobe Illustrator 24.1.2, SVG Export Plug-In . SVG Version: 6.00 Build 0)  -->
<svg version="1.1" xmlns="http://www.w3.org/2000/svg" xmlns:xlink="http://www.w3.org/1999/xlink" x="0px" y="0px"
	 viewBox="0 0 274.32 88.56" style="enable-background:new 0 0 274.32 88.56;" xml:space="preserve">
<style type="text/css">
	.st0{fill:#BF1E2E;}
	.st1{fill:#F25A29;}
</style>
<g id="Layer_4">
	<polygon class="st0" points="45.67,14.71 45.67,75.19 76.91,59.89 76.91,49.72 56.03,59.78 56.28,19.32 	"/>
</g>
<g id="Layer_3">
	<g>
		<path class="st1" d="M14.38,29.81v29.97l31.26,15.2l0.02-60.37L14.38,29.81z M35.4,59.57l-10.82-5.03l0.74-20.12l10.08-4.6V59.57z
			"/>
	</g>
</g>
<g id="Layer_2">
	<polyline class="st1" points="45.67,5.56 4.96,25.31 4.96,64.81 45.67,84.24 45.65,77.34 12.03,61.12 12.03,28.36 45.67,12.14 
		45.67,5.56 45.67,5.56 45.67,5.56 45.67,5.56 45.67,5.56 45.67,5.56 45.67,5.56 45.67,5.56 45.67,5.56 	"/>
	<polyline class="st0" points="45.65,5.56 86.36,25.31 86.36,64.81 45.65,84.24 45.67,77.34 79.29,61.12 79.29,28.36 45.65,12.14 
		45.65,5.56 45.65,5.56 45.65,5.56 45.65,5.56 45.65,5.56 45.65,5.56 45.65,5.56 45.65,5.56 45.65,5.56 	"/>
</g>
<g id="Layer_5">
	<g>
		<path class="st1" d="M106.9,51.68c-0.18,0.9-0.61,1.61-1.27,2.15c-0.67,0.54-1.45,0.81-2.34,0.81h-9.71c-0.76,0-1.35-0.2-1.77-0.6
			c-0.43-0.4-0.64-0.94-0.64-1.6c0-0.11,0-0.23,0-0.36c0-0.13,0.02-0.26,0.07-0.4l2.52-11.82c0.07-0.37,0.21-0.73,0.43-1.09
			c0.22-0.36,0.49-0.67,0.81-0.95c0.32-0.28,0.68-0.5,1.09-0.67c0.4-0.17,0.82-0.26,1.26-0.26h9.72c0.78,0,1.38,0.24,1.81,0.71
			c0.42,0.47,0.64,1.03,0.64,1.67c0,0.12-0.01,0.21-0.02,0.29c-0.01,0.08-0.03,0.18-0.05,0.29L106.9,51.68z M102.22,51.09
			c0.3,0,0.56-0.11,0.79-0.34c0.23-0.23,0.37-0.44,0.41-0.62l1.82-8.68v-0.1c0-0.18-0.07-0.33-0.22-0.45
			c-0.15-0.11-0.35-0.17-0.6-0.17h-6.06c-0.28,0-0.52,0.07-0.74,0.22c-0.22,0.15-0.35,0.32-0.4,0.5l-1.86,8.82
			c0,0.18,0.07,0.37,0.21,0.55c0.14,0.18,0.33,0.28,0.59,0.28H102.22z"/>
		<path class="st1" d="M124.37,51.68c-0.18,0.9-0.6,1.61-1.26,2.15c-0.65,0.54-1.43,0.81-2.33,0.81h-9.47
			c-0.67,0-1.23-0.21-1.71-0.64c-0.47-0.42-0.71-0.99-0.71-1.71c0-0.11,0.01-0.22,0.02-0.31c0.01-0.09,0.03-0.19,0.05-0.31
			l0.14-0.59h10.61c0.28,0,0.53-0.11,0.76-0.34c0.23-0.23,0.37-0.44,0.41-0.62l0.31-1.58c0.02-0.07,0.03-0.15,0.03-0.24
			c0-0.51-0.26-0.76-0.79-0.76h-7.65c-0.67,0-1.22-0.25-1.67-0.74c-0.45-0.49-0.67-1.07-0.67-1.74c0-0.21,0.01-0.37,0.03-0.48
			l1-4.72c0.07-0.37,0.23-0.73,0.48-1.09c0.25-0.36,0.55-0.67,0.88-0.95c0.33-0.28,0.69-0.5,1.08-0.67
			c0.39-0.17,0.77-0.26,1.14-0.26h9.47c0.78,0,1.38,0.24,1.79,0.71c0.41,0.47,0.62,1.03,0.62,1.67c0,0.12-0.01,0.21-0.02,0.29
			c-0.01,0.08-0.03,0.18-0.05,0.29l-0.17,0.86H116.1c-0.28,0-0.52,0.07-0.74,0.22c-0.22,0.15-0.35,0.32-0.4,0.5l-0.28,1.31
			c-0.02,0.07-0.03,0.15-0.03,0.24c0,0.48,0.26,0.72,0.79,0.72h7.65c0.78,0,1.38,0.24,1.79,0.71c0.41,0.47,0.62,1.03,0.62,1.67
			c0,0.12-0.01,0.22-0.02,0.31s-0.03,0.2-0.05,0.31L124.37,51.68z"/>
		<path class="st1" d="M147.35,54.64l2.79-13.19v-0.1c0-0.18-0.07-0.33-0.21-0.45c-0.14-0.11-0.33-0.17-0.59-0.17h-5
			c-0.32,0-0.58,0.07-0.77,0.22c-0.2,0.15-0.32,0.32-0.36,0.5l-2.17,10.23c-0.18,0.9-0.61,1.61-1.27,2.15
			c-0.67,0.54-1.45,0.81-2.34,0.81h-0.86l2.79-13.19v-0.1c0-0.18-0.07-0.33-0.21-0.45c-0.14-0.11-0.34-0.17-0.62-0.17h-4.96
			c-0.3,0-0.56,0.07-0.77,0.22c-0.22,0.15-0.35,0.32-0.4,0.5l-2.79,13.19h-1.1c-0.64,0-1.16-0.2-1.55-0.6
			c-0.39-0.4-0.59-0.94-0.59-1.6c0-0.11,0-0.23,0-0.36c0-0.13,0.02-0.26,0.07-0.4l2.52-11.82c0.07-0.37,0.21-0.73,0.43-1.09
			c0.22-0.36,0.48-0.67,0.78-0.95c0.3-0.28,0.63-0.5,1-0.67c0.37-0.17,0.73-0.26,1.1-0.26h19.95c0.67,0,1.23,0.25,1.69,0.74
			c0.46,0.49,0.69,1.07,0.69,1.74c0,0.21-0.01,0.37-0.03,0.48l-2.52,11.82c-0.09,0.44-0.26,0.84-0.5,1.21
			c-0.24,0.37-0.53,0.68-0.86,0.95c-0.33,0.26-0.69,0.47-1.07,0.6s-0.76,0.21-1.15,0.21H147.35z"/>
		<path class="st1" d="M169.98,51.68c-0.09,0.44-0.26,0.84-0.5,1.21c-0.24,0.37-0.53,0.68-0.86,0.95c-0.33,0.26-0.69,0.47-1.07,0.6
			s-0.76,0.21-1.15,0.21h-9.99c-0.67,0-1.23-0.21-1.69-0.62c-0.46-0.41-0.69-0.98-0.69-1.69c0-0.11,0.01-0.22,0.02-0.33
			c0.01-0.1,0.03-0.21,0.05-0.33l1.07-4.96c0.07-0.39,0.22-0.76,0.46-1.12c0.24-0.36,0.53-0.67,0.86-0.95
			c0.33-0.28,0.69-0.5,1.08-0.67c0.39-0.17,0.77-0.26,1.14-0.26h9.16l0.48-2.27v-0.1c0-0.18-0.07-0.33-0.22-0.45
			c-0.15-0.11-0.36-0.17-0.64-0.17h-11.06l0.17-0.86c0.07-0.37,0.22-0.73,0.46-1.09c0.24-0.36,0.53-0.67,0.86-0.95
			c0.33-0.28,0.69-0.5,1.08-0.67c0.39-0.17,0.77-0.26,1.14-0.26h9.99c0.67,0,1.23,0.25,1.69,0.74c0.46,0.49,0.69,1.07,0.69,1.74
			c0,0.21-0.01,0.37-0.03,0.48L169.98,51.68z M165.3,51.09c0.32,0,0.6-0.11,0.83-0.34c0.23-0.23,0.37-0.44,0.41-0.62l0.31-1.58
			c0.02-0.07,0.03-0.15,0.03-0.24c0-0.51-0.29-0.76-0.86-0.76h-6.27c-0.18,0-0.41,0.09-0.69,0.28c-0.28,0.18-0.45,0.43-0.52,0.72
			l-0.31,1.58v0.1c0,0.18,0.09,0.37,0.26,0.57c0.17,0.2,0.35,0.29,0.53,0.29H165.3z"/>
		<path class="st1" d="M174.39,54.64c-0.76,0-1.35-0.2-1.77-0.6c-0.43-0.4-0.64-0.94-0.64-1.6c0-0.11,0-0.23,0-0.36
			c0-0.13,0.02-0.26,0.07-0.4l2.52-11.82c0.07-0.37,0.21-0.73,0.43-1.09c0.22-0.36,0.49-0.67,0.81-0.95
			c0.32-0.28,0.68-0.5,1.09-0.67c0.4-0.17,0.82-0.26,1.26-0.26h4.75c0.67,0,1.23,0.25,1.69,0.74c0.46,0.49,0.69,1.07,0.69,1.74
			c0,0.21-0.01,0.37-0.03,0.48l-0.17,0.86h-5.89c-0.28,0-0.52,0.07-0.74,0.22c-0.22,0.15-0.35,0.32-0.4,0.5l-2.79,13.19H174.39z"/>
		<path class="st1" d="M197.85,51.68c-0.09,0.44-0.27,0.84-0.52,1.21c-0.25,0.37-0.54,0.68-0.86,0.95c-0.32,0.26-0.68,0.47-1.07,0.6
			s-0.77,0.21-1.14,0.21h-3.44c-0.64,0-1.2-0.21-1.67-0.64c-0.47-0.42-0.71-0.99-0.71-1.71c0-0.11,0.01-0.22,0.02-0.31
			c0.01-0.09,0.03-0.19,0.05-0.31l3.96-18.64c0.07-0.37,0.23-0.73,0.48-1.09c0.25-0.36,0.55-0.67,0.88-0.95
			c0.33-0.28,0.69-0.5,1.07-0.67c0.38-0.17,0.75-0.26,1.12-0.26h0.9l-4.27,20.22c0,0.18,0.07,0.36,0.21,0.53s0.33,0.26,0.59,0.26
			h4.55L197.85,51.68z"/>
		<path class="st1" d="M214.56,51.68c-0.18,0.9-0.61,1.61-1.27,2.15c-0.67,0.54-1.45,0.81-2.34,0.81h-9.71
			c-0.76,0-1.35-0.2-1.77-0.6c-0.43-0.4-0.64-0.94-0.64-1.6c0-0.11,0-0.23,0-0.36c0-0.13,0.02-0.26,0.07-0.4l2.52-11.82
			c0.07-0.37,0.21-0.73,0.43-1.09c0.22-0.36,0.49-0.67,0.81-0.95c0.32-0.28,0.68-0.5,1.09-0.67c0.4-0.17,0.82-0.26,1.26-0.26h9.72
			c0.78,0,1.38,0.24,1.81,0.71c0.42,0.47,0.64,1.03,0.64,1.67c0,0.12-0.01,0.21-0.02,0.29c-0.01,0.08-0.03,0.18-0.05,0.29
			L214.56,51.68z M209.88,51.09c0.3,0,0.56-0.11,0.79-0.34c0.23-0.23,0.37-0.44,0.41-0.62l1.83-8.68v-0.1
			c0-0.18-0.07-0.33-0.22-0.45c-0.15-0.11-0.35-0.17-0.6-0.17h-6.06c-0.28,0-0.52,0.07-0.74,0.22c-0.22,0.15-0.35,0.32-0.4,0.5
			l-1.86,8.82c0,0.18,0.07,0.37,0.21,0.55c0.14,0.18,0.33,0.28,0.59,0.28H209.88z"/>
		<path class="st1" d="M232.3,51.71c-0.09,0.44-0.26,0.84-0.52,1.21c-0.25,0.37-0.55,0.68-0.88,0.95c-0.33,0.26-0.69,0.46-1.07,0.6
			c-0.38,0.14-0.76,0.21-1.15,0.21h-8.58l-0.79,3.69h-4.1l3.93-18.47c0.07-0.37,0.23-0.73,0.48-1.08c0.25-0.36,0.55-0.67,0.88-0.95
			c0.33-0.28,0.69-0.49,1.08-0.65c0.39-0.16,0.77-0.24,1.14-0.24h9.72c0.67,0,1.23,0.24,1.7,0.72s0.71,1.06,0.71,1.72
			c0,0.21-0.01,0.37-0.03,0.48L232.3,51.71z M227.58,51.13c0.18,0,0.37-0.11,0.57-0.34c0.2-0.23,0.32-0.44,0.36-0.62l1.86-8.68v-0.1
			c0-0.18-0.06-0.33-0.17-0.43c-0.12-0.1-0.25-0.15-0.41-0.15H224c-0.28,0-0.52,0.07-0.72,0.21c-0.21,0.14-0.33,0.3-0.38,0.48
			l-1.86,8.68v0.1c0,0.18,0.06,0.37,0.19,0.57c0.13,0.2,0.32,0.29,0.57,0.29H227.58z"/>
		<path class="st1" d="M250.25,51.68c-0.18,0.9-0.61,1.61-1.27,2.15c-0.67,0.54-1.44,0.81-2.31,0.81h-9.99
			c-0.67,0-1.23-0.21-1.69-0.62c-0.46-0.41-0.69-0.98-0.69-1.69c0-0.11,0.01-0.22,0.02-0.33c0.01-0.1,0.03-0.21,0.05-0.33
			l2.52-11.82c0.07-0.37,0.22-0.73,0.46-1.09c0.24-0.36,0.53-0.67,0.86-0.95c0.33-0.28,0.69-0.5,1.08-0.67
			c0.39-0.17,0.77-0.26,1.14-0.26h9.99c0.76,0,1.35,0.24,1.77,0.71c0.43,0.47,0.64,1.03,0.64,1.67c0,0.12-0.01,0.21-0.02,0.29
			c-0.01,0.08-0.03,0.18-0.05,0.29l-1,4.72c-0.07,0.37-0.22,0.73-0.45,1.09c-0.23,0.36-0.51,0.67-0.83,0.95
			c-0.32,0.28-0.68,0.5-1.09,0.67c-0.4,0.17-0.82,0.26-1.26,0.26h-9.13l-0.52,2.58v0.1c0,0.18,0.1,0.37,0.31,0.57
			c0.21,0.2,0.45,0.29,0.72,0.29h10.85L250.25,51.68z M247.12,43.72c0.67,0,1.08-0.32,1.24-0.96l0.28-1.31v-0.1
			c0-0.18-0.07-0.33-0.22-0.45c-0.15-0.11-0.36-0.17-0.64-0.17h-6.03c-0.3,0-0.6,0.07-0.9,0.22c-0.3,0.15-0.47,0.32-0.52,0.5
			l-0.31,1.48c0,0.25,0.11,0.45,0.34,0.59c0.23,0.14,0.47,0.21,0.72,0.21H247.12z"/>
		<path class="st1" d="M267.72,51.68c-0.18,0.9-0.6,1.61-1.26,2.15c-0.65,0.54-1.43,0.81-2.33,0.81h-9.47
			c-0.67,0-1.23-0.21-1.71-0.64c-0.47-0.42-0.71-0.99-0.71-1.71c0-0.11,0.01-0.22,0.02-0.31c0.01-0.09,0.03-0.19,0.05-0.31
			l0.14-0.59h10.61c0.28,0,0.53-0.11,0.76-0.34c0.23-0.23,0.37-0.44,0.41-0.62l0.31-1.58c0.02-0.07,0.03-0.15,0.03-0.24
			c0-0.51-0.26-0.76-0.79-0.76h-7.65c-0.67,0-1.22-0.25-1.67-0.74c-0.45-0.49-0.67-1.07-0.67-1.74c0-0.21,0.01-0.37,0.03-0.48
			l1-4.72c0.07-0.37,0.23-0.73,0.48-1.09c0.25-0.36,0.55-0.67,0.88-0.95c0.33-0.28,0.69-0.5,1.08-0.67
			c0.39-0.17,0.77-0.26,1.14-0.26h9.47c0.78,0,1.38,0.24,1.79,0.71c0.41,0.47,0.62,1.03,0.62,1.67c0,0.12-0.01,0.21-0.02,0.29
			c-0.01,0.08-0.03,0.18-0.05,0.29l-0.17,0.86h-10.61c-0.28,0-0.52,0.07-0.74,0.22c-0.22,0.15-0.35,0.32-0.4,0.5l-0.28,1.31
			C258.02,42.82,258,42.91,258,43c0,0.48,0.26,0.72,0.79,0.72h7.65c0.78,0,1.38,0.24,1.79,0.71c0.41,0.47,0.62,1.03,0.62,1.67
			c0,0.12-0.01,0.22-0.02,0.31c-0.01,0.09-0.03,0.2-0.05,0.31L267.72,51.68z"/>
	</g>
</g>
</svg>
